<svg xmlns="http://www.w3.org/2000/svg" width="1200" height="630" viewBox="0 0 1200 630" fill="none">
  <defs>
    <linearGradient id="bg" x1="120" y1="72" x2="1080" y2="558" gradientUnits="userSpaceOnUse">
      <stop stop-color="#071225" />
      <stop offset="0.54" stop-color="#0B1C3D" />
      <stop offset="1" stop-color="#0E224A" />
    </linearGradient>
    <radialGradient id="glowA" cx="0" cy="0" r="1" gradientUnits="userSpaceOnUse" gradientTransform="translate(236 148) rotate(41.2) scale(398 288)">
      <stop stop-color="#3B82F6" stop-opacity="0.42" />
      <stop offset="1" stop-color="#3B82F6" stop-opacity="0" />
    </radialGradient>
    <radialGradient id="glowB" cx="0" cy="0" r="1" gradientUnits="userSpaceOnUse" gradientTransform="translate(942 192) rotate(126.9) scale(312 228)">
      <stop stop-color="#93C5FD" stop-opacity="0.26" />
      <stop offset="1" stop-color="#93C5FD" stop-opacity="0" />
    </radialGradient>
  </defs>
  <rect width="1200" height="630" rx="36" fill="url(#bg)" />
  <rect x="48" y="48" width="1104" height="534" rx="28" fill="rgba(255,255,255,0.02)" stroke="rgba(255,255,255,0.08)" />
  <rect x="48" y="48" width="1104" height="534" rx="28" fill="url(#glowA)" />
  <rect x="48" y="48" width="1104" height="534" rx="28" fill="url(#glowB)" />
  <g opacity="0.18" stroke="#94A3B8">
    <path d="M128 48V582" />
    <path d="M320 48V582" />
    <path d="M512 48V582" />
    <path d="M704 48V582" />
    <path d="M896 48V582" />
    <path d="M1088 48V582" />
  </g>
  <path d="M194 344C302 212 450 182 560 284C654 372 690 510 772 480C866 444 934 186 1082 270" stroke="rgba(255,255,255,0.25)" stroke-width="4" stroke-linecap="round" />
  <path d="M194 344C302 212 450 182 560 284C654 372 690 510 772 480C866 444 934 186 1082 270" stroke="#60A5FA" stroke-width="6" stroke-linecap="round" />
  <circle cx="194" cy="344" r="14" fill="#3B82F6" />
  <circle cx="560" cy="284" r="10" fill="#0B1C3D" stroke="#93C5FD" stroke-width="5" />
  <circle cx="772" cy="480" r="10" fill="#0B1C3D" stroke="#93C5FD" stroke-width="5" />
  <circle cx="1082" cy="270" r="10" fill="#0B1C3D" stroke="#E2E8F0" stroke-width="5" />
  <text x="112" y="190" fill="#E2E8F0" font-family="system-ui, -apple-system, BlinkMacSystemFont, 'Segoe UI', sans-serif" font-size="64" font-weight="700">Mahdi Khan</text>
  <text x="112" y="262" fill="#CBD5E1" font-family="system-ui, -apple-system, BlinkMacSystemFont, 'Segoe UI', sans-serif" font-size="34">Human-first AI education, orchestration, and field-tested systems.</text>
  <text x="112" y="504" fill="#60A5FA" font-family="'Brush Script MT', 'Segoe Script', cursive" font-size="78">Deploy</text>
  <text x="498" y="388" fill="#60A5FA" font-family="'Brush Script MT', 'Segoe Script', cursive" font-size="70">Distill</text>
  <text x="914" y="236" fill="#93C5FD" font-family="'Brush Script MT', 'Segoe Script', cursive" font-size="70">Teach</text>
</svg>
