<?xml version="1.0" encoding="UTF-8"?>
<svg class="site-logo__img" width="30.75" height="13.775" version="1.1" viewbox="0 0 30.75 13.775" xmlns="http://www.w3.org/2000/svg">
 <defs>
  <clippath id="clipPath54-4-0-4-6-8-3-6">
   <path transform="translate(-49.633 -76.79)" d="m0 115.1h163.9v-115.1h-163.9z"/>
  </clippath>
  <clippath id="clipPath52-5-0-8-9-4-3-8">
   <path transform="translate(-84.878 -50.837)" d="m0 115.1h163.9v-115.1h-163.9z"/>
  </clippath>
 </defs>
 <g transform="translate(98.69 50.271)" fill="#f3f3e8">
  <path d="m-70.993-36.496h3.0536v-13.535h-3.0536z"/>
  <path transform="matrix(.35278 0 0 -.35278 -81.576 -40.895)" d="m0 0c1.016-3.611 4.063-5.304 8.238-5.304 3.217 0 6.715 1.016 6.715 3.95 0 2.652-2.821 3.95-6.884 4.74l-4.57 0.903c-6.151 1.184-11.455 4.175-11.455 10.607 0 8.07 8.407 11.681 15.969 11.681 6.094 0 12.075-2.37 14.445-8.182l-8.069-2.934c-1.016 2.539-3.611 3.95-7.166 3.95-3.442 0-6.038-1.298-6.038-3.612 0-1.918 1.693-3.329 4.288-3.837l5.079-1.015c6.094-1.241 13.542-3.16 13.542-10.947 0-8.013-8.125-12.47-15.912-12.47-8.238 0-13.994 3.498-16.307 9.536z" clip-path="url(#clipPath52-5-0-8-9-4-3-8)"/>
  <path transform="matrix(.35278 0 0 -.35278 -94.01 -50.051)" d="m0 0 0.028-0.026-0.028 0.011-13.266-35.255 8.379-3.153 3.136 8.333h13.568l3.132-8.333 8.378 3.153-13.255 35.27zm5.036-12.048 3.953-10.519h-7.91z" clip-path="url(#clipPath54-4-0-4-6-8-3-6)"/>
 </g>
</svg>