<?xml version="1.0" encoding="UTF-8"?>
<svg xmlns="http://www.w3.org/2000/svg" viewBox="0 0 151 36">
<g id="opml-logo" xmlns="http://www.w3.org/2000/svg"><g fill="#0B1F51" fill-rule="evenodd"><path d="M66.75 15.392h2.73V8.765h1.16V6.51h-1.16v-.557c0-.367.084-.629.247-.775.16-.142.422-.216.782-.22V2.655c-1.288.004-2.245.27-2.846.792-.606.524-.912 1.368-.912 2.507v.557h-.85v2.255h.85v6.627m19.686-6.274l1.267-2.239c-.359-.296-.781-.437-1.29-.437-.779 0-1.458.132-1.82.734l-.058.097v-.69h-2.64v8.79h2.71v-5.025c0-.86.445-1.415 1.133-1.415.278 0 .516.095.698.185m2.191 5.166c.795.86 1.764 1.296 2.883 1.296 1.116 0 2.019-.48 2.684-1.423l.058-.08v1.29h2.73V2.71h-2.73v4.97l-.058-.079c-.61-.846-1.5-1.276-2.644-1.276-1.144 0-2.128.438-2.923 1.303-.796.866-1.2 1.987-1.2 3.333 0 1.348.404 2.466 1.2 3.325m1.956-5.012c.407-.395.882-.595 1.41-.595.528 0 1.003.196 1.41.587.407.391.613.956.613 1.68 0 .722-.206 1.29-.614 1.687-.406.395-.88.596-1.41.596-.527 0-1.002-.198-1.409-.588-.407-.391-.614-.955-.614-1.68 0-.723.207-1.29.614-1.687m-31.98 1.68l-3.215-4.448h3.306l1.645 2.429 1.608-2.43h3.142l-3.18 4.342c1.036 1.43 2.236 3.109 3.29 4.538h-3.29l-1.699-2.501c-.498.714-1.183 1.768-1.681 2.501h-3.086l3.16-4.43m19.39-.018c0-1.501-.998-2.198-2.07-2.198-1.053 0-2.069.697-2.069 2.198 0 1.482 1.016 2.214 2.07 2.214 1.071 0 2.07-.714 2.07-2.214m2.808 0c0 2.75-2.126 4.717-4.879 4.717-2.734 0-4.877-1.966-4.877-4.717 0-2.752 2.143-4.7 4.877-4.7 2.753 0 4.879 1.948 4.879 4.7M107.085 8.4c1.109 0 1.866-.626 1.866-1.608 0-1.02-.757-1.626-1.866-1.626h-1.7V8.4h1.7zm-1.718 2.429v4.556h-2.92V2.717h4.934c2.66 0 4.49 1.698 4.49 4.056 0 2.394-1.83 4.056-4.49 4.056h-2.014zm13.533.108c0-1.501-1-2.198-2.071-2.198-1.053 0-2.069.697-2.069 2.198 0 1.482 1.016 2.214 2.069 2.214 1.072 0 2.07-.714 2.07-2.214m2.809 0c0 2.75-2.126 4.717-4.88 4.717-2.733 0-4.877-1.966-4.877-4.717 0-2.752 2.144-4.7 4.878-4.7 2.753 0 4.879 1.948 4.879 4.7m1.23 4.448h2.808V2.59h-2.808zm4.494 0h2.809v-8.88h-2.809v8.88zm1.386-13.186c.924 0 1.663.716 1.663 1.59 0 .876-.739 1.59-1.663 1.59-.887 0-1.627-.714-1.627-1.59 0-.874.74-1.59 1.627-1.59zm19.062 4.306l-2.032 4.752-2.236-4.752h-3.141l3.862 7.683-1.99 4.388h2.957l5.554-12.071h-2.974m-11.934 9.152c1.097 0 2.053-.295 2.842-.875.777-.572 1.3-1.352 1.557-2.32h-3.016c-.154.305-.335.52-.535.644-.203.123-.488.187-.848.187-.575 0-1.018-.22-1.315-.653-.296-.43-.446-1.004-.446-1.706s.15-1.277.446-1.706c.299-.434.76-.654 1.373-.654.609 0 1.055.28 1.325.832h3.017c-.256-1.011-.774-1.8-1.542-2.345-.777-.553-1.74-.835-2.858-.835-1.349 0-2.463.432-3.311 1.28-.85.848-1.28 2.001-1.28 3.428 0 1.426.43 2.58 1.28 3.435.848.854 1.962 1.288 3.31 1.288M48.256 12.947a3.885 3.885 0 01-3.885-3.884 3.885 3.885 0 017.77 0 3.884 3.884 0 01-3.885 3.884m0-10.628a6.746 6.746 0 100 13.49 6.746 6.746 0 000-13.489M23.944 24.075a6.752 6.752 0 110-13.503 6.752 6.752 0 010 13.502zM17.186.144C7.694.144 0 7.835 0 17.324c0 9.488 7.694 17.179 17.186 17.179s17.185-7.691 17.185-17.18c0-9.488-7.693-17.179-17.185-17.179zM55.036 19.668V31.28h-2.829v-6.55l-2.696 6.55H47.41l-2.697-6.55v6.55h-2.828V19.668h3.242l3.342 8.007 3.324-8.007h3.243m6.054 9.513c1.127 0 2.088-.858 2.088-2.359 0-1.537-.943-2.34-2.088-2.34-1.2 0-2.107.803-2.107 2.34 0 1.465.943 2.36 2.107 2.36m2.106.946c-.406.857-1.33 1.393-2.475 1.393-2.699 0-4.565-1.983-4.565-4.717 0-2.644 1.756-4.68 4.472-4.68 1.644 0 2.366.875 2.55 1.285v-1.018h2.716v7.29c0 .822.055 1.393.073 1.59H63.27a7.493 7.493 0 01-.074-1.054v-.09m7.36 1.144h-2.808v-8.88h2.715v1.018c.5-.839 1.627-1.25 2.57-1.25 2.309 0 3.344 1.59 3.344 3.539v5.573h-2.808v-5.11c0-.875-.48-1.536-1.497-1.536-.924 0-1.516.661-1.516 1.554v5.092m11.944-2.09c1.127 0 2.088-.858 2.088-2.359 0-1.537-.942-2.34-2.088-2.34-1.2 0-2.106.803-2.106 2.34 0 1.465.942 2.36 2.106 2.36m2.107.946c-.406.857-1.331 1.393-2.476 1.393-2.698 0-4.565-1.983-4.565-4.717 0-2.644 1.756-4.68 4.472-4.68 1.645 0 2.366.875 2.55 1.285v-1.018h2.717v7.29c0 .822.055 1.393.074 1.59H84.68a7.394 7.394 0 01-.074-1.054v-.09m25.158 1.144v-8.88h2.68v1.018c.461-.785 1.644-1.286 2.642-1.286 1.312 0 2.254.519 2.716 1.394.72-1 1.607-1.394 2.845-1.394 1.737 0 3.4.982 3.4 3.395v5.753h-2.716v-5.146c0-.839-.462-1.5-1.46-1.5-.997 0-1.532.732-1.532 1.518v5.128h-2.773v-5.146c0-.839-.462-1.5-1.478-1.5-.979 0-1.515.732-1.515 1.536v5.11h-2.809m28.724 0h-2.808v-8.88h2.717v1.018c.498-.839 1.625-1.25 2.567-1.25 2.31 0 3.345 1.59 3.345 3.539v5.573H141.5v-5.11c0-.875-.481-1.536-1.497-1.536-.924 0-1.516.661-1.516 1.554v5.092m-43.704-2.736c-.42.396-.902.594-1.448.594a2.059 2.059 0 01-1.448-.585c-.421-.39-.631-.947-.631-1.673 0-.725.21-1.285.63-1.68.42-.395.903-.594 1.45-.594.545 0 1.027.197 1.447.586.42.39.631.947.631 1.672s-.21 1.285-.63 1.68m.655-6.158l-.025 1.084c-.647-.867-1.576-1.302-2.785-1.302-1.21 0-2.236.442-3.077 1.326-.84.885-1.26 2.014-1.26 3.386 0 1.373.42 2.5 1.26 3.378.84.879 1.852 1.319 3.034 1.319 1.181 0 2.123-.483 2.828-1.45v1.286c0 .746-.177 1.291-.528 1.638-.353.346-.796.519-1.33.519-1.09 0-1.771-.346-2.044-1.038H88.65c.113 1.175.595 2.049 1.448 2.62.851.57 2.005.857 3.458.857.83 0 1.56-.122 2.19-.362.63-.242 1.127-.583 1.491-1.022.727-.857 1.091-1.928 1.091-3.212l.025-9.027H95.44m32.386 3.711l.026-.146a1.93 1.93 0 01.629-1.138c.336-.293.753-.442 1.24-.442.488 0 .916.148 1.273.44.362.294.57.682.617 1.15l.014.136h-3.8zm1.863-3.936c-1.34 0-2.446.424-3.287 1.26-.842.834-1.267 1.976-1.267 3.393 0 1.418.429 2.568 1.275 3.42.847.853 1.95 1.284 3.279 1.284 1.078 0 2.023-.283 2.806-.842a4.022 4.022 0 001.52-2.057h-2.888a2.68 2.68 0 01-.307.332 1.54 1.54 0 01-.43.24c-.19.078-.48.117-.861.117-.393 0-.761-.141-1.097-.423a1.675 1.675 0 01-.597-1.095l-.019-.14h6.494c.034-.244.05-.508.05-.785 0-1.471-.445-2.635-1.323-3.459-.88-.826-2.008-1.245-3.348-1.245zm-27.651 3.936l.026-.146c.083-.46.294-.844.63-1.138.335-.293.752-.442 1.24-.442.487 0 .915.148 1.272.44.362.294.57.682.617 1.15l.014.136h-3.8zm1.863-3.936c-1.34 0-2.446.424-3.287 1.26-.842.834-1.267 1.976-1.267 3.393 0 1.418.429 2.568 1.275 3.42.847.853 1.95 1.284 3.279 1.284 1.078 0 2.022-.283 2.806-.842a4.022 4.022 0 001.52-2.057h-2.888a2.615 2.615 0 01-.307.332 1.544 1.544 0 01-.43.24c-.191.078-.48.117-.861.117-.393 0-.761-.141-1.096-.423a1.673 1.673 0 01-.599-1.095l-.018-.14h6.495c.033-.244.05-.508.05-.785 0-1.471-.446-2.635-1.324-3.459-.88-.826-2.008-1.245-3.348-1.245zm45.865 6.934h.72v2.423h-1.155c-1.047 0-1.857-.231-2.431-.693-.574-.463-.861-1.257-.861-2.382v-3.878h-.85v-2.373h.85V19.91h2.858v2.273h1.572v2.373h-1.572v3.878c0 .434.29.652.87.652"/></g></g>
</svg>