<svg xmlns="http://www.w3.org/2000/svg" width="235" height="68.45" viewBox="0 0 235 68.45"><defs><style>.cls-1{fill:#286383;}.cls-2{fill:#cfb364;}</style></defs><g id="Layer_2" data-name="Layer 2"><g id="youtube"><path class="cls-1" d="M3.88,34.09A28.12,28.12,0,0,0,6,45.33,30.19,30.19,0,0,0,16.44,58.7a25.91,25.91,0,0,0,4.86,2.83,11.81,11.81,0,0,0,1.77.82,17.82,17.82,0,0,0,1.86.65h.17a7.93,7.93,0,0,0,1.18.33c1.84-2.42,1.46-5.83,1.41-8.91,0-1.22-.22-2.22-.25-3.34.16-.49-.14-.45-.42-.24-6.57.27-13.38.37-18.68-2.75a1.51,1.51,0,0,0-.28-.15c.52-1,1.1-2,1.55-3a7.16,7.16,0,0,0,.54-1.42,4.33,4.33,0,0,0,.48.32,16.07,16.07,0,0,0,4.28,1.67c.44.15.47,0,.69.19a44.57,44.57,0,0,0,13.68.7c.13-.1.25-.14.3,0a.92.92,0,0,1,0,.37c.37,5.75.57,11.5.48,17.42a33.7,33.7,0,0,1-.26,3.64,2.17,2.17,0,0,0,.13.5,3.17,3.17,0,0,1-.92-.1,31,31,0,0,1-7.44-2.09A34.43,34.43,0,0,1,3.18,48.51,33.58,33.58,0,0,1,0,34.09H3.88m64.36,0v.6A18.57,18.57,0,0,1,68,38.34a33.23,33.23,0,0,1-2.56,9.48,32.94,32.94,0,0,1-9,12.25,14.61,14.61,0,0,1-1.67,1.48h-.09a30.46,30.46,0,0,1-4.58,2.85A19.91,19.91,0,0,1,47,65.86c-.17.1-.25,0-.33.17-1.31.48-2.6,1-4,1.32h-.32c0-.2.14-.4,0-.62A140.87,140.87,0,0,1,36.52,45a35.67,35.67,0,0,1-.82-4,11,11,0,0,0,3,4.93,1,1,0,0,0,0,.49,98.29,98.29,0,0,0,5,16.43v.17s.17-.22.3-.25a30.36,30.36,0,0,0,7.81-4.1,2,2,0,0,1,.33-.25,35.85,35.85,0,0,0,3.26-2.77A30.63,30.63,0,0,0,62.1,45.39a28.38,28.38,0,0,0,2.09-11.3h4M20.89,7C20,7.41,19,8,18.14,8.46a45.62,45.62,0,0,0-3.88,2.91s-.08,0-.08.1A28.58,28.58,0,0,0,6.62,21.63c-.1.15-.1.26-.18.37A29.31,29.31,0,0,0,3.9,34.09H0A32.83,32.83,0,0,1,2.49,21.18a37,37,0,0,1,2.76-5.25c.12-.25.34-.5.49-.77a33.06,33.06,0,0,1,7.54-8.11s.15-.13.12,0a33.92,33.92,0,0,1,22.53-7A34.31,34.31,0,0,1,47.05,2.56l.4.15A35.91,35.91,0,0,1,54,6.47,34,34,0,0,1,68.24,34.09H64.29A29.54,29.54,0,0,0,61.6,21.78,30.82,30.82,0,0,0,54,11.5l-.1-.12A29.91,29.91,0,0,0,43.71,5.56a.53.53,0,0,1-.42-.13,29.78,29.78,0,0,0-12-1.37A4.46,4.46,0,0,0,30,4.18a30.9,30.9,0,0,0-5.6,1.28l-.95.38A24.27,24.27,0,0,0,20.9,7"/><path class="cls-1" d="M34.41,4.78a4.75,4.75,0,0,1,.72,5.12c-.37.88-1.42,1.3-2,2H33a1.58,1.58,0,0,1-.31-.36,3.86,3.86,0,0,1-.66-4,7.43,7.43,0,0,1,2.24-3c.21,0,.14.18.22.28m5.72,2.78a2.64,2.64,0,0,0,.2,1.49c-.45.3-.77.58-1.2.86l-.14.17c-3.86,2.74-8.36,6.22-10,10.75a8,8,0,0,0,0,5.4v.2a10.28,10.28,0,0,0-1.15,2.91h-.25a11.6,11.6,0,0,1-.34-8.92c.24-.54.45-1.07.7-1.68a23.5,23.5,0,0,1,4.82-5.83,15.53,15.53,0,0,1,1.67-1.42l.19-.14A19.36,19.36,0,0,1,36.32,10l.13-.11q.91-.74,1.89-1.38a13.69,13.69,0,0,1,1.57-1,.09.09,0,0,1,0,.13M28.66,8a5,5,0,0,1,2.24,4.5c-.1,1.09-1,1.67-1.4,2.73-.19.15-.19-.15-.34-.17a3.52,3.52,0,0,1-2-2.61,6.33,6.33,0,0,1,1.27-4.58c.12,0,.24,0,.22.13"/><path class="cls-1" d="M41.52,11.44A5.08,5.08,0,0,1,44.44,15a.22.22,0,0,1,0,.37,8.65,8.65,0,0,1-3.51,0A4,4,0,0,1,38.21,13a4.79,4.79,0,0,1-.2-1.12s-.17,0,0-.15.28,0,.48-.12a2.63,2.63,0,0,1,.67-.22,5.31,5.31,0,0,1,2.38,0m-17.9,1.42a4.9,4.9,0,0,1,3.7,3.1,5.36,5.36,0,0,1-.22,2.94.54.54,0,0,1,0,.18s-.16.17-.25.09a3.53,3.53,0,0,1-3.18-2,6.56,6.56,0,0,1-.46-4.32c.13-.15.25,0,.38,0m32.6,3.55c-.92,1.85-.45,4.31-2.17,5.78a7,7,0,0,1-2.67,1.58c-1.31.37-2.63.69-4,1l-.62.15c-1.67.38-3.34.76-5,1.28a4,4,0,0,0-2.68,3.13L38.81,29a5.3,5.3,0,0,0-5.27-1.53,3.82,3.82,0,0,0-.88.26A10.38,10.38,0,0,0,30.13,29c-.38.24-.74.54-1.09.75-.1-.1-.25-.1-.18-.25a10.9,10.9,0,0,1,2.74-3.34.8.8,0,0,1,.19-.13,5.34,5.34,0,0,1,5-.81,1.54,1.54,0,0,1,.89.54c.13-.15,0-.17,0-.49a3.82,3.82,0,0,1,2-3.22A34.56,34.56,0,0,1,46,20.21a30.64,30.64,0,0,0,8.36-2.91l.13-.1c.54-.33,1.07-.7,1.68-1l.1.1M20.38,18.61a9.21,9.21,0,0,1,2.4.2l.51.18a3.86,3.86,0,0,1,2.26,2.56,12.37,12.37,0,0,0,.27,1.91c0,.3-.27,0-.4.13a3.64,3.64,0,0,1-3.85-1.34,7.16,7.16,0,0,1-1.42-3.57s.12-.22.25,0"/><path class="cls-1" d="M35.75,21.67a5.48,5.48,0,0,1,.63,2s.19.09.17.19l-.13.11a5.27,5.27,0,0,1-5.67-2.15,3.11,3.11,0,0,1-.42-1.93s-.12-.15,0-.21c1.14,0,2.46-.47,3.51.1a4.77,4.77,0,0,1,1.91,1.92m24.36.89a40.41,40.41,0,0,1-1.67,5.13,3.25,3.25,0,0,1-1.19,1.5,12.63,12.63,0,0,1-3.69,1.41h-.34c-2.82.52-5.72,1-8.51,1.54a4.49,4.49,0,0,0-3.34,2.44c-.19,0-.25-.2-.4-.62a4.55,4.55,0,0,1,.63-4.75A5.9,5.9,0,0,1,45,27.54c2.21-.49,4.46-.92,6.69-1.42.9-.25,1.67-.45,2.57-.72a18.2,18.2,0,0,0,5.79-3.06l.08.1"/><path class="cls-1" d="M34.61,30.6A9.64,9.64,0,0,1,38.26,35a14.59,14.59,0,0,0,3.44,5.85,5.82,5.82,0,0,0,2.59,1.46l.61.16a13.84,13.84,0,0,0,5-.11l.5-.1a44.92,44.92,0,0,0,10.32-4c-.4.85-.6,1.79-1,2.62a10,10,0,0,1-1.35,2.19c-.62.22-1.11.42-1.78.64l-.46.2c-1,.4-1.89.9-2.86,1.3l-.37.19a18.62,18.62,0,0,1-3.7,1.35,12.35,12.35,0,0,1-7-.1A10.67,10.67,0,0,1,36,39.39a20,20,0,0,0-2.17-5.9,6.7,6.7,0,0,0-5.3-2.76.15.15,0,0,1,0-.18,6.5,6.5,0,0,1,6.12,0"/><path class="cls-1" d="M63.32,30.06a20.52,20.52,0,0,1-2.72,5.8c-1.68,1.46-4,1.58-6.24,1.86-2.58.33-5.32.44-7.86.9a4.55,4.55,0,0,0-1.91.84l-.28.28a5.73,5.73,0,0,0-.69.87c-.16,0-.21-.23-.25-.33a4.59,4.59,0,0,1,.89-4.87c1.67-1.67,4.11-1.47,6.27-1.82a48.53,48.53,0,0,0,8-1.42L59,32a15.6,15.6,0,0,0,4.21-2.13.9.9,0,0,0,.15.19M9.75,33.49a10.81,10.81,0,0,0,3.34,2.94c.12,0,.24.17.44.29a20,20,0,0,0,2.52,1.2,26.63,26.63,0,0,0,5.49,1.46,5,5,0,0,0,.77.16,70.26,70.26,0,0,0,9,.91c.25-.12.5-.31.44.18.13,3.06.53,5.9.88,8.93.89,6.18,1.83,12.34,2.68,18.54,0,.13.25.13.17.33a32.61,32.61,0,0,1-4.08-.1c-.14-.18.18-.25.2-.41.36-7.68-.69-15.37-1.14-23,0,0,.08-.42-.22-.15a60.81,60.81,0,0,1-9.54-.47,31.29,31.29,0,0,1-7.63-1.86l-.22-.12a16.83,16.83,0,0,1-7.3-5.86,1.82,1.82,0,0,0-.34-.34q.86-.5,1.68-1.05l.28-.2c.75-.54,1.49-1.1,2.22-1.67a3.11,3.11,0,0,0,.22.4m25-5.77a1.09,1.09,0,1,1-1.09,1.09,1.09,1.09,0,0,1,1.09-1.09m4.9-10.18a9.57,9.57,0,0,1,.63,1.67c.19.17,0,.4-.38.27a5.49,5.49,0,0,1-5.13-1.54,3.86,3.86,0,0,1-.77-2.36v-.1c0-.1.43,0,.65-.1a3.86,3.86,0,0,1,4.18.95,6.29,6.29,0,0,1,.87,1.24M17.12,14.31c1.11,5,2.83,10.55,7.78,13.38,0,0,.18.12.28.17a6.47,6.47,0,0,0,1.37,3.84c0,.2-.36.1-.53,0a12.67,12.67,0,0,1-8.65-4.8,33.69,33.69,0,0,1-5.43-11.5,11.75,11.75,0,0,0,5.12-1"/><path class="cls-1" d="M11.71,23.46c1.57,3,4.41,7.29,8.49,8.59.64.24,1.12.44,1.67.59a29,29,0,0,0,4.13.92,38,38,0,0,0,7.61.48v.5C35.38,45.71,37,57,40.5,67.45c0,.15.25.23.28.38A27.43,27.43,0,0,1,37,68.4c0-.18.24-.42.12-.67-1.67-7.59-2.56-15.53-3.81-23.29-.28-1.84-.54-3.69-.87-5.53v-.17c0-.07-.2,0-.32,0a46.58,46.58,0,0,1-13.91-2.19l-.37-.13A16.6,16.6,0,0,1,10,30.6a49.85,49.85,0,0,1-3-4.11,3.06,3.06,0,0,0,.55-.26l.21-.11,2.18-1.34H10a18.06,18.06,0,0,0,1.5-1.25c.08-.09,0-.19.12,0M77.3,16.67c0-.64-.14-.94-.52-.94h-.87c-.12,0-.13,0-.13-.16V15.1c0-.12,0-.15.16-.15h5.72c.2,0,.17,0,.17.15v.48c0,.1,0,.14-.15.14h-.62c-.62,0-.94.35-1,.72s0,1.45,0,2.39v1.28c0,1,0,3.35.1,3.9a3.77,3.77,0,0,0,.59,2.19,2.92,2.92,0,0,0,2.3,1,3.7,3.7,0,0,0,2.18-.81,3.87,3.87,0,0,0,1.15-3V20.53a35.47,35.47,0,0,0-.25-4,.77.77,0,0,0-.69-.81h-.63c-.12,0-.14,0-.14-.15V15.1c0-.1,0-.14.14-.14h3.94c.09,0,.19,0,.19.17v.4c0,.12,0,.19-.12.19h-.57a.72.72,0,0,0-.78.65v3.11c0,.27,0,3.48-.1,4.2a5,5,0,0,1-1.57,3.51,5,5,0,0,1-3.26,1.13,7.88,7.88,0,0,1-2.81-.45,4.19,4.19,0,0,1-2.14-2.42A13.78,13.78,0,0,1,77.23,21Zm20.6,7.51V21.67a9.2,9.2,0,0,0-.12-2,.72.72,0,0,0-.7-.52h-.44v-.45a.11.11,0,0,1,.12-.1H99.6c.15,0,.14,0,.14.1v.43h-.37c-.23,0-.37.24-.4.71-.1.9-.3,3.91-.3,5.68v2.29c0,.2,0,.44-.2.44A.71.71,0,0,1,98,28a23.28,23.28,0,0,1-1.67-1.87l-2.51-2.66c-.24-.27-2.07-2.58-2.38-3h-.1v2.69c0,1.11.12,2.76.14,3.35,0,.76.27,1.17.83,1.17h.34c.1,0,.1,0,.1.11v.32a.1.1,0,0,1-.1.1h-3v-.55H90c.3,0,.51-.44.57-1.32,0-.25.12-2.39.12-4.37v-1.2c0-.79-.49-1.54-1.16-1.56h-.33v-.46h2.84a.48.48,0,0,1,.39.16l3.09,3.65,2.29,2.84.07-1.2Zm3.83-1.73V19.56a.48.48,0,0,0-.44-.45h-.83v-.38h4.23c.18,0,.1,0,.1.11v.34a.1.1,0,0,1-.1.1h-.39c-.33,0-.53.1-.53.35v7.62c0,.42.2.49.45.49h.55a.1.1,0,0,1,.1.1v.37h-4.21c-.15,0-.1,0-.1-.1v-.47H101c.27,0,.55,0,.6-.37s0-3.09,0-3.8Zm7.74-3.24H109a6,6,0,0,0-1.79.22,9.2,9.2,0,0,0-1.22,1.5s0,.1-.13.1l-.29-.11a.13.13,0,0,1,0-.12c.15-.57.59-2.32.64-2.59s.1-.24.2-.24.13,0,.25.2a1.12,1.12,0,0,0,.88.34h6a2,2,0,0,0,1-.34c.14-.13.22-.2.3-.2s.14,0,.17.22.3,2,.4,2.66a.09.09,0,0,1,0,.12l-.28.1L115,21a8.86,8.86,0,0,0-1.15-1.51,6.05,6.05,0,0,0-1.84-.25h-.43V27c0,.2.13.54.45.54h.6c.12,0,.13,0,.13.13V28s0,.1-.13.1H108.4c-.21,0-.12,0-.12-.17v-.25c0-.1,0-.13.1-.13h.53a.42.42,0,0,0,.45-.38h0V22.49Zm9.83,3.73a7.84,7.84,0,0,0,1.37,0,1.07,1.07,0,0,0,.62-.42,1.64,1.64,0,0,0,.3-.83c0-.1,0-.12.1-.12h.37s.12,0,.1.1a10.74,10.74,0,0,0,0,1.39v1.52c0,.28,0,.1-.1.1h-.32l-.1-.1a4.12,4.12,0,0,0-.27-.69,1.08,1.08,0,0,0-.75-.43,7.84,7.84,0,0,0-1.37,0v3.06c0,.7.15.93.32,1a2.82,2.82,0,0,0,1.12.11h1.07a2,2,0,0,0,1-.43,15.54,15.54,0,0,0,1.37-1.44h.13l.24.14a.09.09,0,0,1,0,.1l-.61,2a.28.28,0,0,1-.3.2h-7.35c-.1,0-.12,0-.12-.15v-.28a.12.12,0,0,1,.13-.12h.4c.62,0,.67-.1.67-.57V19.63c0-.44-.18-.52-.55-.52h-.52v-.45h7.31s.5,2,.55,2.16,0,.1,0,.13l-.22.1a.1.1,0,0,1-.16,0h0a16.11,16.11,0,0,0-1.58-1.51,2.16,2.16,0,0,0-1-.36h-1.77Zm7-1V19.48a.42.42,0,0,0-.43-.37h-.67a.1.1,0,0,1-.1-.1v-.38h4.2a6.49,6.49,0,0,1,4.53,1.22,4.2,4.2,0,0,1,1.5,3.34,4.76,4.76,0,0,1-1.32,3.51,6.09,6.09,0,0,1-4.43,1.42h-4.41c-.22,0-.1,0-.1-.11v-.37h.8c.25,0,.4-.1.43-.32s.1-3.34.1-4.3Zm2,1.3v3.35a1.21,1.21,0,0,0,.24.73c.16.24.61.32,1.07.32a3.24,3.24,0,0,0,2.5-1.3,5.21,5.21,0,0,0,1-3.05,4.55,4.55,0,0,0-1.09-2.9,4,4,0,0,0-2.66-1.23,1.61,1.61,0,0,0-.75.1c-.2.1-.25.31-.27.57v3.41Zm12.56.77a.13.13,0,0,1,.13.15,5,5,0,0,0,.74,2.08A2.71,2.71,0,0,0,144,27.47a2.19,2.19,0,0,0,2.29-2c0-1.52-.3-2-2.69-2.88A9.8,9.8,0,0,1,141,20.88a3.44,3.44,0,0,1-.92-2.61,2.94,2.94,0,0,1,1.39-2.7,3.9,3.9,0,0,1,2.64-.89,6.52,6.52,0,0,1,2.44.37.34.34,0,0,0,.42-.1l.23-.24a.39.39,0,0,1,.27-.11c.14,0,.17.2.19.31l.3,3.15a.12.12,0,0,1-.1.11l-.4.14c-.1,0-.19,0-.24-.14a5.48,5.48,0,0,0-1.13-1.9,2.27,2.27,0,0,0-1.84-.77,1.92,1.92,0,0,0-2,1.67,2.11,2.11,0,0,0,.49,1.67,6.07,6.07,0,0,0,2.42,1.21,5.86,5.86,0,0,1,2.36,1.4,3.37,3.37,0,0,1,1,2.74,3.94,3.94,0,0,1-3.79,4.07h-.24a5.38,5.38,0,0,1-3.34-.79,1,1,0,0,0-.42-.2c-.12,0-.19.13-.3.32s-.2.21-.34.21a.25.25,0,0,1-.25-.3l.3-3.49c0-.13,0-.13.15-.13Zm12.47-4.78h-.47a6.06,6.06,0,0,0-1.79.22,9.2,9.2,0,0,0-1.22,1.5s0,.1-.13.1l-.3-.1a.08.08,0,0,1,0-.11c.15-.57.58-2.33.63-2.6s.1-.23.2-.23.14,0,.25.2a1.15,1.15,0,0,0,.89.34h6a2,2,0,0,0,1-.34c.13-.13.22-.2.3-.2s.13,0,.17.22.3,1.95.4,2.66a.11.11,0,0,1,0,.11l-.29.1-.13-.11a9.4,9.4,0,0,0-1.15-1.51,6.05,6.05,0,0,0-1.84-.25h-.5V27c0,.2.13.53.45.53h.6c.12,0,.13,0,.13.14V28s0,.1-.13.1h-4.22c-.2,0-.11,0-.11-.17v-.25c0-.1,0-.13.1-.13h.68a.42.42,0,0,0,.45-.38h0V22.51l0-3.3Zm7.16,5.18a15.27,15.27,0,0,0-.77,2.55c0,.3.11.61.52.61h.45c.13,0,.15,0,.15.1V28c0,.1,0,.15-.12.15H157.5c-.18,0-.1,0-.1-.17v-.25s0-.12.1-.12h.35a1.16,1.16,0,0,0,.91-.58c.18-.29,1.13-2.61,1.57-3.78.1-.27,1.19-3.15,1.3-3.5a.51.51,0,0,0,0-.45.32.32,0,0,1-.1-.17s0-.1.14-.11a4.14,4.14,0,0,0,1.5-.67s.1-.12.17-.12.1,0,.15.24c.25.83,1.3,3.82,1.55,4.69s1.17,3.53,1.37,3.9a1,1,0,0,0,.77.6h.45a.11.11,0,0,1,.1.12V28s0,.17-.11.17h-4.08c-.27,0-.15,0-.15-.17v-.37h.37c.36,0,.48-.13.4-.48-.25-.9-.52-1.79-.81-2.68Zm2.81-.53c-.12-.4-.91-3.21-1-3.55s0-.3-.15-.3-.11,0-.16.17-1.29,3.28-1.29,3.68Zm7-4.65h-.46a6,6,0,0,0-1.79.22,9.2,9.2,0,0,0-1.22,1.5s0,.1-.14.1l-.3-.1a.11.11,0,0,1,0-.11c.15-.57.59-2.33.64-2.6s.1-.23.2-.23.13,0,.25.2a1.12,1.12,0,0,0,.88.34h6a2,2,0,0,0,1-.34c.14-.13.22-.2.3-.2s.14,0,.17.22.3,1.95.4,2.66a.08.08,0,0,1,0,.11l-.28.1-.14-.11a8.86,8.86,0,0,0-1.15-1.51,6.05,6.05,0,0,0-1.84-.25h-.43V27c0,.2.13.53.45.53h.6c.12,0,.13,0,.13.14V28s0,.1-.13.1h-4.21c-.21,0-.12,0-.12-.17v-.25c0-.1,0-.13.1-.13h.68a.41.41,0,0,0,.45-.38h0V22.51l0-3.3Zm9.84,3.73a7.84,7.84,0,0,0,1.37,0,1.1,1.1,0,0,0,.62-.42,1.74,1.74,0,0,0,.3-.83c0-.1,0-.12.1-.12h.37s.11,0,.1.1a10.74,10.74,0,0,0,0,1.39v1.52c0,.28,0,.1-.1.1h-.32l-.1-.1a4.12,4.12,0,0,0-.27-.69,1.12,1.12,0,0,0-.74-.47,10.44,10.44,0,0,0-1.37,0v3.06c0,.71.15.94.32,1a3,3,0,0,0,1.12.12h1.07a2.11,2.11,0,0,0,1-.43A14.32,14.32,0,0,0,185,25.75h.14l.23.13a.09.09,0,0,1,0,.1l-.6,2a.29.29,0,0,1-.3.2H177c-.1,0-.11,0-.11-.15v-.29a.12.12,0,0,1,.13-.12h.47c.62,0,.67-.1.67-.56V19.63c0-.44-.19-.52-.56-.52h-.51v-.45h7.3s.5,2,.55,2.16,0,.1,0,.13l-.21.1a.12.12,0,0,1-.17,0h0A16,16,0,0,0,183,19.54a2.24,2.24,0,0,0-1-.36h-1.77v3.76Zm6.88,2.19a.1.1,0,0,1,.1.1,3.71,3.71,0,0,0,.54,1.51,2,2,0,0,0,1.67.9A1.67,1.67,0,0,0,191,26.15c0-1.1-.21-1.44-1.95-2.09a7,7,0,0,1-1.94-1.17,2.48,2.48,0,0,1-.67-1.91,2.14,2.14,0,0,1,1-2,2.8,2.8,0,0,1,1.92-.63,4.67,4.67,0,0,1,1.78.26.22.22,0,0,0,.3,0l.16-.16a.26.26,0,0,1,.21,0c.1,0,.11.15.13.23L192.2,21l-.3.1s-.14,0-.17-.1a4.14,4.14,0,0,0-.84-1.39,1.65,1.65,0,0,0-1.34-.56,1.38,1.38,0,0,0-1.42,1.22,1.57,1.57,0,0,0,.35,1.23,4.42,4.42,0,0,0,1.78.87,4.43,4.43,0,0,1,1.67,1,2.4,2.4,0,0,1,.73,2,2.85,2.85,0,0,1-2.75,3h-.17a3.92,3.92,0,0,1-2.39-.57.85.85,0,0,0-.3-.15.87.87,0,0,0-.22.24c-.08.13-.15.17-.23.17s-.21,0-.19-.22l.22-2.54c0-.1,0-.1.1-.1l.33,0ZM78.13,39.07v-4a.63.63,0,0,0-.6-.62h-.88c-.09,0-.15,0-.15-.12v-.52a.12.12,0,0,1,.13-.11h5.68c.27,0,.14,0,.14.16v.46c0,.1,0,.13-.15.13h-.54c-.45,0-.73.15-.73.48V45.43c0,.57.28.67.62.67h.75c.08,0,.15,0,.15.13v.52s0,.12-.17.12H76.75c-.2,0-.15,0-.15-.15v-.51s0-.11.15-.11h.4c.37,0,.75,0,.83-.51s.1-4.24.1-5.21Zm14,3.83V40.4a10,10,0,0,0-.11-2,.71.71,0,0,0-.71-.52h-.43v-.45a.11.11,0,0,1,.12-.1h2.84c.15,0,.13,0,.13.1v.43h-.37c-.23,0-.36.24-.4.7-.1.91-.3,3.92-.3,5.69V46.5c0,.2,0,.43-.2.43a.69.69,0,0,1-.52-.21c-.23-.22-.88-.92-1.67-1.88L88.2,42.13c-.23-.26-2.07-2.57-2.37-3h-.32v2.73c0,1.1.12,2.76.13,3.34,0,.77.27,1.17.84,1.17h.33c.1,0,.1,0,.1.12v.32a.1.1,0,0,1-.1.1H85.24l-1.4,0v-.51h.46c.31,0,.51-.43.57-1.32,0-.25.12-2.39.12-4.36V39.47c0-.78-.49-1.53-1.15-1.55H83.5v-.47h2.74a.49.49,0,0,1,.39.17l3.09,3.79L92,44.26Zm3.43.94a.1.1,0,0,1,.1.1,3.48,3.48,0,0,0,.54,1.5,2,2,0,0,0,1.67.91,1.68,1.68,0,0,0,1.67-1.49c0-1.1-.22-1.44-2-2.09a7.12,7.12,0,0,1-1.94-1.17A2.53,2.53,0,0,1,95,39.69a2.15,2.15,0,0,1,1-2,2.79,2.79,0,0,1,1.92-.63,4.64,4.64,0,0,1,1.77.26.22.22,0,0,0,.3,0l.17-.16a.23.23,0,0,1,.2,0c.1,0,.12.15.14.23l.21,2.29-.3.1a.19.19,0,0,1-.17-.1,4,4,0,0,0-.83-1.39A1.67,1.67,0,0,0,98,37.76,1.37,1.37,0,0,0,96.61,39,1.53,1.53,0,0,0,97,40.21a4.38,4.38,0,0,0,1.77.87,4.36,4.36,0,0,1,1.67,1,2.41,2.41,0,0,1,.74,2,2.86,2.86,0,0,1-2.75,3h-.18a4,4,0,0,1-2.39-.57.77.77,0,0,0-.3-.15.92.92,0,0,0-.21.24c-.09.13-.15.16-.24.16s-.2,0-.18-.21L95.1,44c0-.1,0-.1.1-.1l.34,0Zm10.13-5.9h-.47a6,6,0,0,0-1.78.21,9.9,9.9,0,0,0-1.23,1.51s0,.1-.13.1l-.3-.1a.09.09,0,0,1,0-.12c.15-.57.58-2.32.63-2.59s.1-.23.21-.23.13,0,.25.2a1.11,1.11,0,0,0,.88.33h6a2,2,0,0,0,1-.33c.14-.14.22-.2.3-.2s.14,0,.17.21.3,2,.4,2.66a.09.09,0,0,1,0,.12l-.28.1-.14-.12a9.32,9.32,0,0,0-1.15-1.5,5.76,5.76,0,0,0-1.84-.25h-.44v7.8c0,.2.14.54.46.54h.6c.11,0,.13,0,.13.13v.3s0,.1-.13.1h-4.22c-.2,0-.11,0-.11-.16V46.4c0-.1,0-.14.1-.14h.68a.42.42,0,0,0,.45-.38h0V41.23Zm7.94,3.24V38.29a.47.47,0,0,0-.43-.45h-.74v-.39h4.23c.19,0,.1,0,.1.12v.33a.1.1,0,0,1-.1.1h-.38c-.33,0-.54.1-.54.35V46c0,.42.21.48.46.48h.55a.1.1,0,0,1,.1.1v.37h-4.22c-.15,0-.1,0-.1-.1v-.47H113c.27,0,.55,0,.6-.36s0-3.1,0-3.8Zm7.75-3.24h-.47a6,6,0,0,0-1.79.21,9.27,9.27,0,0,0-1.22,1.51s0,.1-.14.1l-.3-.1a.13.13,0,0,1,0-.12c.15-.57.59-2.32.64-2.59s.1-.23.2-.23.13,0,.25.2a1.1,1.1,0,0,0,.89.33h6a1.94,1.94,0,0,0,1-.33c.14-.14.22-.2.31-.2s.13,0,.16.21.3,2,.4,2.66a.09.09,0,0,1,0,.12l-.28.1-.13-.12a9.38,9.38,0,0,0-1.16-1.5,5.72,5.72,0,0,0-1.84-.25h-.43v7.8c0,.2.13.54.45.54h.6c.12,0,.13,0,.13.13v.3s0,.1-.13.1h-4.21c-.2,0-.12,0-.12-.16V46.4c0-.1,0-.14.1-.14h.69a.42.42,0,0,0,.45-.38h0V41.23Zm7.34.57c0-.47-.1-.69-.37-.69h-.64a.11.11,0,0,1-.1-.12v-.32a.11.11,0,0,1,.12-.1h4.16c.15,0,.12,0,.12.1v.36a.1.1,0,0,1-.1.1h-.45c-.45,0-.69.25-.7.51s0,1.06,0,1.68v3.71a2.74,2.74,0,0,0,.43,1.67,2.12,2.12,0,0,0,1.67.75,2.73,2.73,0,0,0,1.58-.58,2.85,2.85,0,0,0,.83-2.18V41.31a25.83,25.83,0,0,0-.18-2.91.56.56,0,0,0-.5-.58h-.44a.1.1,0,0,1-.1-.1v-.35a.1.1,0,0,1,.1-.1h2.94c.12,0,.14,0,.14.11v.44h-.42a.52.52,0,0,0-.57.46v5.31a3.54,3.54,0,0,1-1.14,2.56,3.65,3.65,0,0,1-2.35.83,5.86,5.86,0,0,1-2-.33A3.05,3.05,0,0,1,129,44.89a10,10,0,0,1-.28-3.22V38.51Zm13-.57h-.47a6.05,6.05,0,0,0-1.79.21,9.27,9.27,0,0,0-1.22,1.51s0,.1-.13.1l-.3-.1a.09.09,0,0,1,0-.12c.15-.57.58-2.32.63-2.59s.1-.23.2-.23.14,0,.25.2a1.14,1.14,0,0,0,.89.33h6a2,2,0,0,0,1-.33c.13-.14.22-.2.3-.2s.13,0,.17.21.3,2,.4,2.66a.13.13,0,0,1,0,.12l-.29.1-.13-.12a9.32,9.32,0,0,0-1.15-1.5,5.76,5.76,0,0,0-1.84-.25h-.44v7.8c0,.2.14.54.45.54h.61c.11,0,.13,0,.13.13v.3s0,.1-.13.1h-4.22c-.2,0-.12,0-.12-.16V46.4c0-.1,0-.14.1-.14h.69a.42.42,0,0,0,.45-.38h0V41.23l0-3.29Zm9.81,3.73a10.59,10.59,0,0,0,1.38,0,1.19,1.19,0,0,0,.61-.42,1.72,1.72,0,0,0,.31-.84c0-.1,0-.12.1-.12h.36s.12,0,.1.1c0,.47,0,.93,0,1.39V43.3c0,.29,0,.1-.1.1h-.31l-.1-.1a4.37,4.37,0,0,0-.27-.68,1.12,1.12,0,0,0-.74-.47,10.44,10.44,0,0,0-1.37,0v3.06c0,.7.15.94.32,1a3,3,0,0,0,1.12.12H154a2,2,0,0,0,1-.44,15.54,15.54,0,0,0,1.37-1.44h.13l.24.14a.09.09,0,0,1,0,.1l-.6,2a.29.29,0,0,1-.31.2h-7.34c-.1,0-.11,0-.11-.15V46.5a.12.12,0,0,1,.13-.12h.4c.62,0,.67-.1.67-.57V38.36c0-.44-.18-.52-.55-.52h-.52v-.45h7.31s.5,2,.55,2.15,0,.1,0,.14l-.22.1a.12.12,0,0,1-.16,0h0a14,14,0,0,0-1.57-1.51,2.28,2.28,0,0,0-1-.37H151.6l-.12,3.77Zm12.61,4.44a4.66,4.66,0,0,1-2-4,5.11,5.11,0,0,1,1.24-3.34,4.75,4.75,0,0,1,3.89-1.68,4.85,4.85,0,0,1,3.35,1.06,5,5,0,0,1,1.85,4,4.91,4.91,0,0,1-1,2.93A4.78,4.78,0,0,1,167.34,47a6,6,0,0,1-3.25-.89Zm6.17-3.83c0-2.92-1.92-4.53-3-4.53a2.19,2.19,0,0,0-1.67.72,4.8,4.8,0,0,0-1.19,3.25c0,3.34,2,4.63,3.08,4.63,2.39,0,2.84-3,2.84-4.07Zm6.46-.21a9.69,9.69,0,0,0,1.32,0,1.14,1.14,0,0,0,.7-.49,1.82,1.82,0,0,0,.3-.7.1.1,0,0,1,.1-.1h.3v3c0,.27,0,.1-.1.1H179a.1.1,0,0,1-.1-.1,4.35,4.35,0,0,0-.25-.63,1.42,1.42,0,0,0-.65-.54,7.75,7.75,0,0,0-1.44-.1v3.33c0,.18.13.43.32.43h.9v.37a.1.1,0,0,1-.1.1h-4.08c-.2,0,0,0,0-.12v-.36h.57c.28,0,.38,0,.4-.27s0-2,0-4.25V38.21a.51.51,0,0,0-.55-.39h-.67v-.38h7.44c.11,0,.1,0,.13.23l.52,2.18V40l-.27.15s-.1,0-.18-.14a15.17,15.17,0,0,0-1-1.24,2.11,2.11,0,0,0-.92-.6,16.89,16.89,0,0,0-2.36-.13v4.08Zm14-.22v3.59a.59.59,0,0,0,.52.59h.93c.14,0,.15,0,.15.13v.49c0,.1,0,.15-.16.15h-5.52c-.2,0-.15,0-.15-.14v-.5c0-.1,0-.13.12-.13h.48c.62,0,.75-.1.8-.55V34.89c0-.2-.21-.4-.58-.4h-.87c-.1,0-.12,0-.12-.15v-.48c0-.1,0-.14.12-.14h4.82a6.43,6.43,0,0,1,4.41,1A3.57,3.57,0,0,1,197,37.6c0,2.21-1.77,3.71-4.85,3.71h-1.49l.07.54Zm0-1.4a6,6,0,0,0,1.12.11,2.84,2.84,0,0,0,1.89-1.23,3.53,3.53,0,0,0,.43-2,2.73,2.73,0,0,0-2.35-3.06l-.24,0a3.69,3.69,0,0,0-.87.1Zm10.5,1.22a10.44,10.44,0,0,0,1.37,0,1.17,1.17,0,0,0,.62-.42,1.71,1.71,0,0,0,.3-.84c0-.1,0-.12.1-.12H204s.12,0,.1.1a10.74,10.74,0,0,0,0,1.39V43.3c0,.29,0,.1-.1.1h-.32l-.1-.1a4.37,4.37,0,0,0-.27-.68,1.1,1.1,0,0,0-.73-.47,10.44,10.44,0,0,0-1.37,0v3.06c0,.7.15.94.31,1a3.06,3.06,0,0,0,1.12.12h1.07a2,2,0,0,0,1-.44,14.32,14.32,0,0,0,1.37-1.44h.14l.23.14a.09.09,0,0,1,0,.1l-.6,2a.28.28,0,0,1-.3.2h-7.52c-.1,0-.12,0-.12-.15V46.5a.12.12,0,0,1,.13-.12h.4c.62,0,.67-.1.67-.57V38.36c0-.44-.18-.52-.55-.52h-.52v-.45h7.31s.5,2,.55,2.15,0,.1,0,.14l-.22.1a.12.12,0,0,1-.16,0h0A15,15,0,0,0,204,38.27a2.28,2.28,0,0,0-1-.37h-1.77l.07,3.77Zm8.24,1.45a17.67,17.67,0,0,0-.77,2.54c0,.3.12.62.52.62h.47c.13,0,.15,0,.15.1v.3c0,.1,0,.15-.12.15h-3.27c-.19,0-.1,0-.1-.17v-.25s0-.11.1-.11h.35a1.12,1.12,0,0,0,.9-.59c.18-.28,1.14-2.61,1.57-3.78.1-.27,1.19-3.14,1.31-3.49a.59.59,0,0,0,0-.45.33.33,0,0,1-.1-.17s0-.1.13-.12a4.14,4.14,0,0,0,1.5-.67s.1-.11.17-.11.1,0,.15.23c.25.84,1.31,3.83,1.56,4.7s1.17,3.53,1.37,3.9a1,1,0,0,0,.77.6h.45a.1.1,0,0,1,.1.11v.26s0,.16-.12.16h-4.08c-.27,0-.15,0-.15-.16v-.37h.37c.37,0,.48-.14.4-.49-.25-.9-.51-1.79-.8-2.67l-2.83-.07Zm2.81-.53c-.12-.41-.9-3.21-1-3.55s0-.3-.15-.3-.12,0-.17.17-1.22,3.34-1.32,3.66Zm5.85,3.17a5,5,0,0,1-1.45-3.56,5.19,5.19,0,0,1,1.37-3.63,4.59,4.59,0,0,1,3.53-1.43,6.07,6.07,0,0,1,2.69.56.24.24,0,0,0,.28,0l.1-.33h.25c.26,0,.24,0,.24.22s.23,2.52.3,2.92v.17h-.3a.19.19,0,0,1-.17-.15,4.38,4.38,0,0,0-1.07-1.79,3.15,3.15,0,0,0-2.29-1c-2,0-2.77,1.77-2.77,3.76A5.38,5.38,0,0,0,220.05,45a2.82,2.82,0,0,0,2.09,1,3.79,3.79,0,0,0,3.16-1.44c0-.1.14-.17.2-.1l.24.2v.17a5,5,0,0,1-7,1.39,5.7,5.7,0,0,1-.55-.42l-.07,0Zm11.59-4.09a10.44,10.44,0,0,0,1.37,0,1.17,1.17,0,0,0,.62-.42,1.71,1.71,0,0,0,.3-.84c0-.1,0-.12.1-.12h.37s.12,0,.1.1c0,.47,0,.93,0,1.39V43.3c0,.29,0,.1-.1.1h-.32l-.1-.1a4.37,4.37,0,0,0-.27-.68,1.1,1.1,0,0,0-.73-.47,10.44,10.44,0,0,0-1.37,0v3.06c0,.7.15.94.31,1a3.06,3.06,0,0,0,1.12.12h1.07a2,2,0,0,0,1-.44,15.65,15.65,0,0,0,1.38-1.44h.13l.23.14a.07.07,0,0,1,0,.1l-.6,2a.27.27,0,0,1-.3.2h-7.52c-.1,0-.12,0-.12-.15V46.5a.12.12,0,0,1,.13-.12h.4c.62,0,.67-.1.67-.57V38.36c0-.44-.18-.52-.55-.52h-.52v-.45h7.31s.5,2,.55,2.15,0,.1,0,.14l-.22.1a.12.12,0,0,1-.16,0h0a14.92,14.92,0,0,0-1.57-1.51,2.37,2.37,0,0,0-1-.37h-1.78Z"/><path class="cls-2" d="M84.52,58.11l-2.36,6h-.78l-2.36-6v6H77.24V55.76h2.5l2,5.23,2-5.23h2.51v8.38h-1.8v-6Zm7.16,5.4a2.52,2.52,0,0,1-1.92.78,2,2,0,0,1-2.11-2,1.92,1.92,0,0,1,2.11-1.93,2.45,2.45,0,0,1,1.92.74v-.84c0-.62-.53-1-1.33-1a2.56,2.56,0,0,0-1.77.71L88,58.88a4,4,0,0,1,2.65-1c1.38,0,2.65.56,2.65,2.3v3.92H91.68v-.63Zm0-1.58a1.62,1.62,0,0,0-1.28-.53c-.63,0-1.14.33-1.14.92s.51.89,1.14.89a1.62,1.62,0,0,0,1.28-.53Zm5.6-.13-.73.78v1.56H95V55.76h1.59v5l2.3-2.7h2l-2.4,2.75,2.48,3.32h-2Zm4.34-5.46a1,1,0,0,1,1.91,0,1,1,0,1,1-1.91,0Zm.16,1.73h1.6v6.07h-1.6Zm7.38,2.4A1,1,0,0,0,108,59.34a1.7,1.7,0,0,0-1.38.72v4.08h-1.59V58.07h1.59v.79a2.79,2.79,0,0,1,2.12-.94,1.77,1.77,0,0,1,2,1.94v4.28h-1.59ZM113,64.54a2.41,2.41,0,0,0,1.9.75,1.49,1.49,0,0,0,1.67-1.53v-.61a2.37,2.37,0,0,1-1.87.95c-1.52,0-2.68-1.07-2.68-3.09s1.14-3.09,2.68-3.09a2.36,2.36,0,0,1,1.87.93v-.78h1.6v5.65c0,2.31-1.78,2.88-3.27,2.88a3.65,3.65,0,0,1-2.61-.91ZM116.6,60a1.76,1.76,0,0,0-1.37-.69,1.68,1.68,0,0,0,0,3.34A1.79,1.79,0,0,0,116.6,62Zm6.9-4.27h3.92a2.69,2.69,0,1,1,0,5.38h-2.13v3H123.5Zm3.68,1.54h-1.89v2.31h1.89a1.16,1.16,0,1,0,0-2.31Zm6.81.62a3,3,0,0,1,3,3.34v.35h-4.51A1.64,1.64,0,0,0,134.27,63a2.53,2.53,0,0,0,1.62-.6l.7,1a3.79,3.79,0,0,1-2.5.84,3.19,3.19,0,1,1-.1-6.37Zm-1.49,2.62h3A1.4,1.4,0,0,0,134,59.19,1.45,1.45,0,0,0,132.5,60.54Zm9.43,3a2.52,2.52,0,0,1-1.92.78,2,2,0,0,1-2.11-2A1.92,1.92,0,0,1,140,60.35a2.45,2.45,0,0,1,1.92.74v-.84c0-.62-.53-1-1.33-1a2.56,2.56,0,0,0-1.77.71l-.61-1.06a4,4,0,0,1,2.65-1c1.38,0,2.65.56,2.65,2.3v3.92h-1.59v-.63Zm0-1.58a1.62,1.62,0,0,0-1.28-.53c-.63,0-1.14.33-1.14.92s.51.89,1.14.89a1.62,1.62,0,0,0,1.28-.53Zm6.11-4a2.79,2.79,0,0,1,2.39,1.1l-1,1a1.49,1.49,0,0,0-1.28-.65,1.77,1.77,0,0,0,0,3.53,1.54,1.54,0,0,0,1.28-.65l1,1A2.77,2.77,0,0,1,148,64.29a3.19,3.19,0,1,1,0-6.37Zm6.29,0a3,3,0,0,1,3,3.34v.35h-4.51A1.64,1.64,0,0,0,154.61,63a2.53,2.53,0,0,0,1.62-.6l.7,1a3.79,3.79,0,0,1-2.5.84,3.19,3.19,0,1,1-.1-6.37Zm-1.49,2.62h3a1.4,1.4,0,0,0-1.49-1.35A1.45,1.45,0,0,0,152.84,60.54Zm9.34-4.78h3.91a2.69,2.69,0,1,1,0,5.38H164v3h-1.78V55.76Zm3.68,1.54H164v2.31h1.9a1.16,1.16,0,1,0,0-2.31Zm3.65,3.8a3.21,3.21,0,1,1,3.2,3.19A3.07,3.07,0,0,1,169.51,61.1Zm4.76,0a1.56,1.56,0,1,0-1.56,1.77A1.61,1.61,0,0,0,174.27,61.1Zm3.1,1.13a3.52,3.52,0,0,0,2.1.83c.69,0,1-.24,1-.62s-.53-.57-1.22-.71c-1-.2-2.39-.45-2.39-1.9,0-1,.9-1.91,2.49-1.91a3.94,3.94,0,0,1,2.45.83l-.64,1.09a2.62,2.62,0,0,0-1.8-.7c-.58,0-.95.21-.95.57s.48.51,1.15.65c1,.2,2.44.48,2.44,2,0,1.11-.94,2-2.62,2a4.09,4.09,0,0,1-2.72-.94Zm6.1,0a3.49,3.49,0,0,0,2.09.83c.69,0,1-.24,1-.62s-.53-.57-1.22-.71c-1-.2-2.38-.45-2.38-1.9,0-1,.89-1.91,2.48-1.91a3.91,3.91,0,0,1,2.45.83l-.64,1.09a2.58,2.58,0,0,0-1.8-.7c-.57,0-.95.21-.95.57s.48.51,1.15.65c1.05.2,2.44.48,2.44,2,0,1.11-.94,2-2.62,2a4.07,4.07,0,0,1-2.71-.94Zm5.76-5.89a1,1,0,0,1,1-1,1,1,0,0,1,0,1.91A1,1,0,0,1,189.23,56.34Zm.17,1.73H191v6.07H189.4Zm3.28-2.31h1.6v3.09a2.35,2.35,0,0,1,1.87-.93c1.54,0,2.68,1.21,2.68,3.19s-1.15,3.18-2.68,3.18a2.35,2.35,0,0,1-1.87-.93v.78h-1.6Zm3,7.11a1.78,1.78,0,0,0,0-3.53,1.73,1.73,0,0,0-1.36.71v2.14A1.76,1.76,0,0,0,195.64,62.87Zm4.5-7.11h1.6v8.38h-1.6Zm6,2.16a3,3,0,0,1,3,3.34v.35h-4.51A1.63,1.63,0,0,0,206.45,63a2.49,2.49,0,0,0,1.62-.6l.71,1a3.81,3.81,0,0,1-2.5.84,3.19,3.19,0,1,1-.1-6.37Zm-1.5,2.62h3a1.41,1.41,0,0,0-1.49-1.35A1.47,1.47,0,0,0,204.68,60.54Z"/></g></g></svg>